G75*
%MOIN*%
%OFA0B0*%
%FSLAX25Y25*%
%IPPOS*%
%LPD*%
%AMOC8*
5,1,8,0,0,1.08239X$1,22.5*
%
%ADD10C,0.00600*%
%ADD11C,0.00500*%
%ADD12C,0.00400*%
D10*
X0174139Y0052971D02*
X0174139Y0054084D01*
X0174695Y0054641D01*
X0174695Y0056039D02*
X0174139Y0056596D01*
X0174139Y0057709D01*
X0174695Y0058266D01*
X0174695Y0056039D02*
X0176922Y0056039D01*
X0177478Y0056596D01*
X0177478Y0057709D01*
X0176922Y0058266D01*
X0180044Y0058456D02*
X0181157Y0059569D01*
X0182271Y0059569D01*
X0183384Y0058456D01*
X0182271Y0057058D02*
X0182271Y0055388D01*
X0181714Y0054831D01*
X0180601Y0054831D01*
X0180044Y0055388D01*
X0180044Y0057058D01*
X0180044Y0053528D02*
X0181157Y0052414D01*
X0182271Y0052414D01*
X0183384Y0053528D01*
X0185950Y0054641D02*
X0185950Y0052414D01*
X0189289Y0052414D01*
X0189289Y0054641D01*
X0188176Y0056039D02*
X0188176Y0057709D01*
X0187620Y0058266D01*
X0185950Y0058266D01*
X0186506Y0059665D02*
X0185950Y0060221D01*
X0185950Y0061891D01*
X0189289Y0061891D01*
X0188176Y0061891D02*
X0188176Y0060221D01*
X0187620Y0059665D01*
X0186506Y0059665D01*
X0186506Y0063290D02*
X0185950Y0063846D01*
X0185950Y0064960D01*
X0187063Y0065516D02*
X0187063Y0063290D01*
X0187620Y0063290D02*
X0188176Y0063846D01*
X0188176Y0064960D01*
X0187620Y0065516D01*
X0187063Y0065516D01*
X0187063Y0066915D02*
X0188176Y0068028D01*
X0188176Y0068585D01*
X0188176Y0066915D02*
X0185950Y0066915D01*
X0183384Y0066725D02*
X0183384Y0064498D01*
X0180044Y0064498D01*
X0181714Y0064498D02*
X0181714Y0065611D01*
X0180044Y0068123D02*
X0180044Y0069236D01*
X0180044Y0068680D02*
X0183384Y0068680D01*
X0183384Y0068123D01*
X0181714Y0070540D02*
X0180601Y0070540D01*
X0180044Y0071097D01*
X0180044Y0072210D01*
X0180601Y0072766D01*
X0181714Y0072766D01*
X0182271Y0072210D01*
X0182271Y0071097D01*
X0181714Y0070540D01*
X0182271Y0074165D02*
X0180044Y0074165D01*
X0181157Y0074165D02*
X0182271Y0075278D01*
X0182271Y0075835D01*
X0182271Y0077186D02*
X0182271Y0077743D01*
X0180044Y0077743D01*
X0180044Y0078299D02*
X0180044Y0077186D01*
X0180601Y0079603D02*
X0181157Y0080159D01*
X0181157Y0081829D01*
X0181714Y0081829D02*
X0180044Y0081829D01*
X0180044Y0080159D01*
X0180601Y0079603D01*
X0182271Y0080159D02*
X0182271Y0081273D01*
X0181714Y0081829D01*
X0182271Y0083228D02*
X0182271Y0084898D01*
X0181714Y0085454D01*
X0180044Y0085454D01*
X0180044Y0083228D02*
X0182271Y0083228D01*
X0185950Y0083038D02*
X0185950Y0080811D01*
X0189289Y0080811D01*
X0188176Y0084436D02*
X0186506Y0084436D01*
X0185950Y0084993D01*
X0185950Y0086663D01*
X0188176Y0086663D01*
X0189289Y0086106D02*
X0189846Y0086106D01*
X0189846Y0084993D02*
X0189289Y0084993D01*
X0187620Y0088061D02*
X0187620Y0089175D01*
X0188733Y0088618D02*
X0185950Y0088618D01*
X0186506Y0091035D02*
X0185950Y0091591D01*
X0186506Y0091035D02*
X0188733Y0091035D01*
X0188176Y0090478D02*
X0188176Y0091591D01*
X0187620Y0092895D02*
X0188176Y0093452D01*
X0188176Y0094565D01*
X0187620Y0095121D01*
X0187063Y0095121D01*
X0187063Y0092895D01*
X0186506Y0092895D02*
X0187620Y0092895D01*
X0186506Y0092895D02*
X0185950Y0093452D01*
X0185950Y0094565D01*
X0185950Y0096520D02*
X0188176Y0096520D01*
X0187063Y0096520D02*
X0188176Y0097633D01*
X0188176Y0098190D01*
X0183384Y0097728D02*
X0180044Y0097728D01*
X0180044Y0096330D02*
X0180044Y0094660D01*
X0180601Y0094103D01*
X0181714Y0094103D01*
X0182271Y0094660D01*
X0182271Y0096330D01*
X0181714Y0097728D02*
X0182271Y0098285D01*
X0182271Y0099398D01*
X0181714Y0099955D01*
X0180044Y0099955D01*
X0180601Y0101354D02*
X0180044Y0101910D01*
X0180044Y0103023D01*
X0180601Y0103580D01*
X0181714Y0103580D01*
X0182271Y0103023D01*
X0182271Y0101910D01*
X0181714Y0101354D01*
X0180601Y0101354D01*
X0177478Y0101910D02*
X0177478Y0103023D01*
X0176922Y0103580D01*
X0174695Y0101354D01*
X0174139Y0101910D01*
X0174139Y0103023D01*
X0174695Y0103580D01*
X0176922Y0103580D01*
X0177478Y0101910D02*
X0176922Y0101354D01*
X0174695Y0101354D01*
X0174695Y0100098D02*
X0174139Y0100098D01*
X0174139Y0099541D01*
X0174695Y0099541D01*
X0174695Y0100098D01*
X0175809Y0098142D02*
X0175809Y0095916D01*
X0177478Y0097586D01*
X0174139Y0097586D01*
X0180044Y0092148D02*
X0180044Y0091035D01*
X0180601Y0090478D01*
X0181714Y0091035D02*
X0181714Y0092148D01*
X0181157Y0092705D01*
X0180601Y0092705D01*
X0180044Y0092148D01*
X0181714Y0091035D02*
X0182271Y0090478D01*
X0182827Y0090478D01*
X0183384Y0091035D01*
X0183384Y0092148D01*
X0182827Y0092705D01*
X0177478Y0089779D02*
X0176365Y0090892D01*
X0174139Y0090892D01*
X0175809Y0090892D02*
X0175809Y0088666D01*
X0176365Y0088666D02*
X0177478Y0089779D01*
X0176365Y0088666D02*
X0174139Y0088666D01*
X0174695Y0087267D02*
X0174139Y0086710D01*
X0174139Y0085597D01*
X0174695Y0085040D01*
X0175809Y0085597D02*
X0175809Y0086710D01*
X0175252Y0087267D01*
X0174695Y0087267D01*
X0175809Y0085597D02*
X0176365Y0085040D01*
X0176922Y0085040D01*
X0177478Y0085597D01*
X0177478Y0086710D01*
X0176922Y0087267D01*
X0175809Y0083642D02*
X0175809Y0081415D01*
X0176922Y0080017D02*
X0177478Y0079460D01*
X0177478Y0078347D01*
X0176922Y0077790D01*
X0174695Y0077790D01*
X0174139Y0078347D01*
X0174139Y0079460D01*
X0174695Y0080017D01*
X0174139Y0076392D02*
X0177478Y0076392D01*
X0177478Y0074165D02*
X0174139Y0076392D01*
X0174139Y0074165D02*
X0177478Y0074165D01*
X0175809Y0072766D02*
X0175809Y0070540D01*
X0176922Y0069141D02*
X0177478Y0069141D01*
X0176922Y0069141D02*
X0175809Y0068028D01*
X0174139Y0068028D01*
X0175809Y0068028D02*
X0176922Y0066915D01*
X0177478Y0066915D01*
X0176922Y0065516D02*
X0176365Y0065516D01*
X0175809Y0064960D01*
X0175809Y0063290D01*
X0177478Y0063290D02*
X0177478Y0064960D01*
X0176922Y0065516D01*
X0175809Y0064960D02*
X0175252Y0065516D01*
X0174695Y0065516D01*
X0174139Y0064960D01*
X0174139Y0063290D01*
X0177478Y0063290D01*
X0185950Y0056039D02*
X0188176Y0056039D01*
X0187620Y0053528D02*
X0187620Y0052414D01*
X0177478Y0052971D02*
X0176922Y0052414D01*
X0174695Y0052414D01*
X0174139Y0052971D01*
X0176922Y0054641D02*
X0177478Y0054084D01*
X0177478Y0052971D01*
X0186506Y0063290D02*
X0187620Y0063290D01*
X0188733Y0073561D02*
X0189289Y0074118D01*
X0189289Y0075231D01*
X0188733Y0075787D01*
X0188176Y0075787D01*
X0187620Y0075231D01*
X0187063Y0075787D01*
X0186506Y0075787D01*
X0185950Y0075231D01*
X0185950Y0074118D01*
X0186506Y0073561D01*
X0187620Y0074674D02*
X0187620Y0075231D01*
X0183941Y0077743D02*
X0183384Y0077743D01*
X0188733Y0088618D02*
X0189289Y0089175D01*
X0181714Y0104979D02*
X0180601Y0104979D01*
X0180044Y0105535D01*
X0180044Y0106649D01*
X0180601Y0107205D01*
X0181714Y0107205D01*
X0182271Y0106649D01*
X0182271Y0105535D01*
X0181714Y0104979D01*
X0182271Y0108604D02*
X0178931Y0108604D01*
X0180044Y0108604D02*
X0180044Y0110274D01*
X0180601Y0110830D01*
X0181714Y0110830D01*
X0182271Y0110274D01*
X0182271Y0108604D01*
D11*
X0104390Y0008124D02*
X0104390Y0001250D01*
X0154822Y0001250D01*
X0154822Y0008124D01*
X0104390Y0008124D01*
X0104390Y0028209D01*
X0154822Y0028209D01*
X0154822Y0008124D01*
X0148487Y0015179D02*
X0141687Y0022179D01*
X0140587Y0021179D02*
X0147387Y0014179D01*
X0139587Y0018179D02*
X0139589Y0018320D01*
X0139595Y0018461D01*
X0139605Y0018601D01*
X0139619Y0018741D01*
X0139637Y0018881D01*
X0139658Y0019020D01*
X0139684Y0019159D01*
X0139713Y0019297D01*
X0139747Y0019433D01*
X0139784Y0019569D01*
X0139825Y0019704D01*
X0139870Y0019838D01*
X0139919Y0019970D01*
X0139971Y0020101D01*
X0140027Y0020230D01*
X0140087Y0020357D01*
X0140150Y0020483D01*
X0140216Y0020607D01*
X0140287Y0020730D01*
X0140360Y0020850D01*
X0140437Y0020968D01*
X0140517Y0021084D01*
X0140601Y0021197D01*
X0140687Y0021308D01*
X0140777Y0021417D01*
X0140870Y0021523D01*
X0140965Y0021626D01*
X0141064Y0021727D01*
X0141165Y0021825D01*
X0141269Y0021920D01*
X0141376Y0022012D01*
X0141485Y0022101D01*
X0141597Y0022186D01*
X0141711Y0022269D01*
X0141827Y0022349D01*
X0141946Y0022425D01*
X0142067Y0022497D01*
X0142189Y0022567D01*
X0142314Y0022632D01*
X0142440Y0022695D01*
X0142568Y0022753D01*
X0142698Y0022808D01*
X0142829Y0022860D01*
X0142962Y0022907D01*
X0143096Y0022951D01*
X0143231Y0022992D01*
X0143367Y0023028D01*
X0143504Y0023060D01*
X0143642Y0023089D01*
X0143780Y0023114D01*
X0143920Y0023134D01*
X0144060Y0023151D01*
X0144200Y0023164D01*
X0144341Y0023173D01*
X0144481Y0023178D01*
X0144622Y0023179D01*
X0144763Y0023176D01*
X0144904Y0023169D01*
X0145044Y0023158D01*
X0145184Y0023143D01*
X0145324Y0023124D01*
X0145463Y0023102D01*
X0145601Y0023075D01*
X0145739Y0023045D01*
X0145875Y0023010D01*
X0146011Y0022972D01*
X0146145Y0022930D01*
X0146279Y0022884D01*
X0146411Y0022835D01*
X0146541Y0022781D01*
X0146670Y0022724D01*
X0146797Y0022664D01*
X0146923Y0022600D01*
X0147046Y0022532D01*
X0147168Y0022461D01*
X0147288Y0022387D01*
X0147405Y0022309D01*
X0147520Y0022228D01*
X0147633Y0022144D01*
X0147744Y0022057D01*
X0147852Y0021966D01*
X0147957Y0021873D01*
X0148060Y0021776D01*
X0148160Y0021677D01*
X0148257Y0021575D01*
X0148351Y0021470D01*
X0148442Y0021363D01*
X0148530Y0021253D01*
X0148615Y0021141D01*
X0148697Y0021026D01*
X0148776Y0020909D01*
X0148851Y0020790D01*
X0148923Y0020669D01*
X0148991Y0020546D01*
X0149056Y0020421D01*
X0149118Y0020294D01*
X0149175Y0020165D01*
X0149230Y0020035D01*
X0149280Y0019904D01*
X0149327Y0019771D01*
X0149370Y0019637D01*
X0149409Y0019501D01*
X0149444Y0019365D01*
X0149476Y0019228D01*
X0149503Y0019090D01*
X0149527Y0018951D01*
X0149547Y0018811D01*
X0149563Y0018671D01*
X0149575Y0018531D01*
X0149583Y0018390D01*
X0149587Y0018249D01*
X0149587Y0018109D01*
X0149583Y0017968D01*
X0149575Y0017827D01*
X0149563Y0017687D01*
X0149547Y0017547D01*
X0149527Y0017407D01*
X0149503Y0017268D01*
X0149476Y0017130D01*
X0149444Y0016993D01*
X0149409Y0016857D01*
X0149370Y0016721D01*
X0149327Y0016587D01*
X0149280Y0016454D01*
X0149230Y0016323D01*
X0149175Y0016193D01*
X0149118Y0016064D01*
X0149056Y0015937D01*
X0148991Y0015812D01*
X0148923Y0015689D01*
X0148851Y0015568D01*
X0148776Y0015449D01*
X0148697Y0015332D01*
X0148615Y0015217D01*
X0148530Y0015105D01*
X0148442Y0014995D01*
X0148351Y0014888D01*
X0148257Y0014783D01*
X0148160Y0014681D01*
X0148060Y0014582D01*
X0147957Y0014485D01*
X0147852Y0014392D01*
X0147744Y0014301D01*
X0147633Y0014214D01*
X0147520Y0014130D01*
X0147405Y0014049D01*
X0147288Y0013971D01*
X0147168Y0013897D01*
X0147046Y0013826D01*
X0146923Y0013758D01*
X0146797Y0013694D01*
X0146670Y0013634D01*
X0146541Y0013577D01*
X0146411Y0013523D01*
X0146279Y0013474D01*
X0146145Y0013428D01*
X0146011Y0013386D01*
X0145875Y0013348D01*
X0145739Y0013313D01*
X0145601Y0013283D01*
X0145463Y0013256D01*
X0145324Y0013234D01*
X0145184Y0013215D01*
X0145044Y0013200D01*
X0144904Y0013189D01*
X0144763Y0013182D01*
X0144622Y0013179D01*
X0144481Y0013180D01*
X0144341Y0013185D01*
X0144200Y0013194D01*
X0144060Y0013207D01*
X0143920Y0013224D01*
X0143780Y0013244D01*
X0143642Y0013269D01*
X0143504Y0013298D01*
X0143367Y0013330D01*
X0143231Y0013366D01*
X0143096Y0013407D01*
X0142962Y0013451D01*
X0142829Y0013498D01*
X0142698Y0013550D01*
X0142568Y0013605D01*
X0142440Y0013663D01*
X0142314Y0013726D01*
X0142189Y0013791D01*
X0142067Y0013861D01*
X0141946Y0013933D01*
X0141827Y0014009D01*
X0141711Y0014089D01*
X0141597Y0014172D01*
X0141485Y0014257D01*
X0141376Y0014346D01*
X0141269Y0014438D01*
X0141165Y0014533D01*
X0141064Y0014631D01*
X0140965Y0014732D01*
X0140870Y0014835D01*
X0140777Y0014941D01*
X0140687Y0015050D01*
X0140601Y0015161D01*
X0140517Y0015274D01*
X0140437Y0015390D01*
X0140360Y0015508D01*
X0140287Y0015628D01*
X0140216Y0015751D01*
X0140150Y0015875D01*
X0140087Y0016001D01*
X0140027Y0016128D01*
X0139971Y0016257D01*
X0139919Y0016388D01*
X0139870Y0016520D01*
X0139825Y0016654D01*
X0139784Y0016789D01*
X0139747Y0016925D01*
X0139713Y0017061D01*
X0139684Y0017199D01*
X0139658Y0017338D01*
X0139637Y0017477D01*
X0139619Y0017617D01*
X0139605Y0017757D01*
X0139595Y0017897D01*
X0139589Y0018038D01*
X0139587Y0018179D01*
X0133787Y0020979D02*
X0126587Y0014279D01*
X0125587Y0015379D02*
X0132687Y0021879D01*
X0124587Y0018179D02*
X0124589Y0018320D01*
X0124595Y0018461D01*
X0124605Y0018601D01*
X0124619Y0018741D01*
X0124637Y0018881D01*
X0124658Y0019020D01*
X0124684Y0019159D01*
X0124713Y0019297D01*
X0124747Y0019433D01*
X0124784Y0019569D01*
X0124825Y0019704D01*
X0124870Y0019838D01*
X0124919Y0019970D01*
X0124971Y0020101D01*
X0125027Y0020230D01*
X0125087Y0020357D01*
X0125150Y0020483D01*
X0125216Y0020607D01*
X0125287Y0020730D01*
X0125360Y0020850D01*
X0125437Y0020968D01*
X0125517Y0021084D01*
X0125601Y0021197D01*
X0125687Y0021308D01*
X0125777Y0021417D01*
X0125870Y0021523D01*
X0125965Y0021626D01*
X0126064Y0021727D01*
X0126165Y0021825D01*
X0126269Y0021920D01*
X0126376Y0022012D01*
X0126485Y0022101D01*
X0126597Y0022186D01*
X0126711Y0022269D01*
X0126827Y0022349D01*
X0126946Y0022425D01*
X0127067Y0022497D01*
X0127189Y0022567D01*
X0127314Y0022632D01*
X0127440Y0022695D01*
X0127568Y0022753D01*
X0127698Y0022808D01*
X0127829Y0022860D01*
X0127962Y0022907D01*
X0128096Y0022951D01*
X0128231Y0022992D01*
X0128367Y0023028D01*
X0128504Y0023060D01*
X0128642Y0023089D01*
X0128780Y0023114D01*
X0128920Y0023134D01*
X0129060Y0023151D01*
X0129200Y0023164D01*
X0129341Y0023173D01*
X0129481Y0023178D01*
X0129622Y0023179D01*
X0129763Y0023176D01*
X0129904Y0023169D01*
X0130044Y0023158D01*
X0130184Y0023143D01*
X0130324Y0023124D01*
X0130463Y0023102D01*
X0130601Y0023075D01*
X0130739Y0023045D01*
X0130875Y0023010D01*
X0131011Y0022972D01*
X0131145Y0022930D01*
X0131279Y0022884D01*
X0131411Y0022835D01*
X0131541Y0022781D01*
X0131670Y0022724D01*
X0131797Y0022664D01*
X0131923Y0022600D01*
X0132046Y0022532D01*
X0132168Y0022461D01*
X0132288Y0022387D01*
X0132405Y0022309D01*
X0132520Y0022228D01*
X0132633Y0022144D01*
X0132744Y0022057D01*
X0132852Y0021966D01*
X0132957Y0021873D01*
X0133060Y0021776D01*
X0133160Y0021677D01*
X0133257Y0021575D01*
X0133351Y0021470D01*
X0133442Y0021363D01*
X0133530Y0021253D01*
X0133615Y0021141D01*
X0133697Y0021026D01*
X0133776Y0020909D01*
X0133851Y0020790D01*
X0133923Y0020669D01*
X0133991Y0020546D01*
X0134056Y0020421D01*
X0134118Y0020294D01*
X0134175Y0020165D01*
X0134230Y0020035D01*
X0134280Y0019904D01*
X0134327Y0019771D01*
X0134370Y0019637D01*
X0134409Y0019501D01*
X0134444Y0019365D01*
X0134476Y0019228D01*
X0134503Y0019090D01*
X0134527Y0018951D01*
X0134547Y0018811D01*
X0134563Y0018671D01*
X0134575Y0018531D01*
X0134583Y0018390D01*
X0134587Y0018249D01*
X0134587Y0018109D01*
X0134583Y0017968D01*
X0134575Y0017827D01*
X0134563Y0017687D01*
X0134547Y0017547D01*
X0134527Y0017407D01*
X0134503Y0017268D01*
X0134476Y0017130D01*
X0134444Y0016993D01*
X0134409Y0016857D01*
X0134370Y0016721D01*
X0134327Y0016587D01*
X0134280Y0016454D01*
X0134230Y0016323D01*
X0134175Y0016193D01*
X0134118Y0016064D01*
X0134056Y0015937D01*
X0133991Y0015812D01*
X0133923Y0015689D01*
X0133851Y0015568D01*
X0133776Y0015449D01*
X0133697Y0015332D01*
X0133615Y0015217D01*
X0133530Y0015105D01*
X0133442Y0014995D01*
X0133351Y0014888D01*
X0133257Y0014783D01*
X0133160Y0014681D01*
X0133060Y0014582D01*
X0132957Y0014485D01*
X0132852Y0014392D01*
X0132744Y0014301D01*
X0132633Y0014214D01*
X0132520Y0014130D01*
X0132405Y0014049D01*
X0132288Y0013971D01*
X0132168Y0013897D01*
X0132046Y0013826D01*
X0131923Y0013758D01*
X0131797Y0013694D01*
X0131670Y0013634D01*
X0131541Y0013577D01*
X0131411Y0013523D01*
X0131279Y0013474D01*
X0131145Y0013428D01*
X0131011Y0013386D01*
X0130875Y0013348D01*
X0130739Y0013313D01*
X0130601Y0013283D01*
X0130463Y0013256D01*
X0130324Y0013234D01*
X0130184Y0013215D01*
X0130044Y0013200D01*
X0129904Y0013189D01*
X0129763Y0013182D01*
X0129622Y0013179D01*
X0129481Y0013180D01*
X0129341Y0013185D01*
X0129200Y0013194D01*
X0129060Y0013207D01*
X0128920Y0013224D01*
X0128780Y0013244D01*
X0128642Y0013269D01*
X0128504Y0013298D01*
X0128367Y0013330D01*
X0128231Y0013366D01*
X0128096Y0013407D01*
X0127962Y0013451D01*
X0127829Y0013498D01*
X0127698Y0013550D01*
X0127568Y0013605D01*
X0127440Y0013663D01*
X0127314Y0013726D01*
X0127189Y0013791D01*
X0127067Y0013861D01*
X0126946Y0013933D01*
X0126827Y0014009D01*
X0126711Y0014089D01*
X0126597Y0014172D01*
X0126485Y0014257D01*
X0126376Y0014346D01*
X0126269Y0014438D01*
X0126165Y0014533D01*
X0126064Y0014631D01*
X0125965Y0014732D01*
X0125870Y0014835D01*
X0125777Y0014941D01*
X0125687Y0015050D01*
X0125601Y0015161D01*
X0125517Y0015274D01*
X0125437Y0015390D01*
X0125360Y0015508D01*
X0125287Y0015628D01*
X0125216Y0015751D01*
X0125150Y0015875D01*
X0125087Y0016001D01*
X0125027Y0016128D01*
X0124971Y0016257D01*
X0124919Y0016388D01*
X0124870Y0016520D01*
X0124825Y0016654D01*
X0124784Y0016789D01*
X0124747Y0016925D01*
X0124713Y0017061D01*
X0124684Y0017199D01*
X0124658Y0017338D01*
X0124637Y0017477D01*
X0124619Y0017617D01*
X0124605Y0017757D01*
X0124595Y0017897D01*
X0124589Y0018038D01*
X0124587Y0018179D01*
X0118487Y0015179D02*
X0111687Y0022179D01*
X0110587Y0021179D02*
X0117387Y0014179D01*
X0109587Y0018179D02*
X0109589Y0018320D01*
X0109595Y0018461D01*
X0109605Y0018601D01*
X0109619Y0018741D01*
X0109637Y0018881D01*
X0109658Y0019020D01*
X0109684Y0019159D01*
X0109713Y0019297D01*
X0109747Y0019433D01*
X0109784Y0019569D01*
X0109825Y0019704D01*
X0109870Y0019838D01*
X0109919Y0019970D01*
X0109971Y0020101D01*
X0110027Y0020230D01*
X0110087Y0020357D01*
X0110150Y0020483D01*
X0110216Y0020607D01*
X0110287Y0020730D01*
X0110360Y0020850D01*
X0110437Y0020968D01*
X0110517Y0021084D01*
X0110601Y0021197D01*
X0110687Y0021308D01*
X0110777Y0021417D01*
X0110870Y0021523D01*
X0110965Y0021626D01*
X0111064Y0021727D01*
X0111165Y0021825D01*
X0111269Y0021920D01*
X0111376Y0022012D01*
X0111485Y0022101D01*
X0111597Y0022186D01*
X0111711Y0022269D01*
X0111827Y0022349D01*
X0111946Y0022425D01*
X0112067Y0022497D01*
X0112189Y0022567D01*
X0112314Y0022632D01*
X0112440Y0022695D01*
X0112568Y0022753D01*
X0112698Y0022808D01*
X0112829Y0022860D01*
X0112962Y0022907D01*
X0113096Y0022951D01*
X0113231Y0022992D01*
X0113367Y0023028D01*
X0113504Y0023060D01*
X0113642Y0023089D01*
X0113780Y0023114D01*
X0113920Y0023134D01*
X0114060Y0023151D01*
X0114200Y0023164D01*
X0114341Y0023173D01*
X0114481Y0023178D01*
X0114622Y0023179D01*
X0114763Y0023176D01*
X0114904Y0023169D01*
X0115044Y0023158D01*
X0115184Y0023143D01*
X0115324Y0023124D01*
X0115463Y0023102D01*
X0115601Y0023075D01*
X0115739Y0023045D01*
X0115875Y0023010D01*
X0116011Y0022972D01*
X0116145Y0022930D01*
X0116279Y0022884D01*
X0116411Y0022835D01*
X0116541Y0022781D01*
X0116670Y0022724D01*
X0116797Y0022664D01*
X0116923Y0022600D01*
X0117046Y0022532D01*
X0117168Y0022461D01*
X0117288Y0022387D01*
X0117405Y0022309D01*
X0117520Y0022228D01*
X0117633Y0022144D01*
X0117744Y0022057D01*
X0117852Y0021966D01*
X0117957Y0021873D01*
X0118060Y0021776D01*
X0118160Y0021677D01*
X0118257Y0021575D01*
X0118351Y0021470D01*
X0118442Y0021363D01*
X0118530Y0021253D01*
X0118615Y0021141D01*
X0118697Y0021026D01*
X0118776Y0020909D01*
X0118851Y0020790D01*
X0118923Y0020669D01*
X0118991Y0020546D01*
X0119056Y0020421D01*
X0119118Y0020294D01*
X0119175Y0020165D01*
X0119230Y0020035D01*
X0119280Y0019904D01*
X0119327Y0019771D01*
X0119370Y0019637D01*
X0119409Y0019501D01*
X0119444Y0019365D01*
X0119476Y0019228D01*
X0119503Y0019090D01*
X0119527Y0018951D01*
X0119547Y0018811D01*
X0119563Y0018671D01*
X0119575Y0018531D01*
X0119583Y0018390D01*
X0119587Y0018249D01*
X0119587Y0018109D01*
X0119583Y0017968D01*
X0119575Y0017827D01*
X0119563Y0017687D01*
X0119547Y0017547D01*
X0119527Y0017407D01*
X0119503Y0017268D01*
X0119476Y0017130D01*
X0119444Y0016993D01*
X0119409Y0016857D01*
X0119370Y0016721D01*
X0119327Y0016587D01*
X0119280Y0016454D01*
X0119230Y0016323D01*
X0119175Y0016193D01*
X0119118Y0016064D01*
X0119056Y0015937D01*
X0118991Y0015812D01*
X0118923Y0015689D01*
X0118851Y0015568D01*
X0118776Y0015449D01*
X0118697Y0015332D01*
X0118615Y0015217D01*
X0118530Y0015105D01*
X0118442Y0014995D01*
X0118351Y0014888D01*
X0118257Y0014783D01*
X0118160Y0014681D01*
X0118060Y0014582D01*
X0117957Y0014485D01*
X0117852Y0014392D01*
X0117744Y0014301D01*
X0117633Y0014214D01*
X0117520Y0014130D01*
X0117405Y0014049D01*
X0117288Y0013971D01*
X0117168Y0013897D01*
X0117046Y0013826D01*
X0116923Y0013758D01*
X0116797Y0013694D01*
X0116670Y0013634D01*
X0116541Y0013577D01*
X0116411Y0013523D01*
X0116279Y0013474D01*
X0116145Y0013428D01*
X0116011Y0013386D01*
X0115875Y0013348D01*
X0115739Y0013313D01*
X0115601Y0013283D01*
X0115463Y0013256D01*
X0115324Y0013234D01*
X0115184Y0013215D01*
X0115044Y0013200D01*
X0114904Y0013189D01*
X0114763Y0013182D01*
X0114622Y0013179D01*
X0114481Y0013180D01*
X0114341Y0013185D01*
X0114200Y0013194D01*
X0114060Y0013207D01*
X0113920Y0013224D01*
X0113780Y0013244D01*
X0113642Y0013269D01*
X0113504Y0013298D01*
X0113367Y0013330D01*
X0113231Y0013366D01*
X0113096Y0013407D01*
X0112962Y0013451D01*
X0112829Y0013498D01*
X0112698Y0013550D01*
X0112568Y0013605D01*
X0112440Y0013663D01*
X0112314Y0013726D01*
X0112189Y0013791D01*
X0112067Y0013861D01*
X0111946Y0013933D01*
X0111827Y0014009D01*
X0111711Y0014089D01*
X0111597Y0014172D01*
X0111485Y0014257D01*
X0111376Y0014346D01*
X0111269Y0014438D01*
X0111165Y0014533D01*
X0111064Y0014631D01*
X0110965Y0014732D01*
X0110870Y0014835D01*
X0110777Y0014941D01*
X0110687Y0015050D01*
X0110601Y0015161D01*
X0110517Y0015274D01*
X0110437Y0015390D01*
X0110360Y0015508D01*
X0110287Y0015628D01*
X0110216Y0015751D01*
X0110150Y0015875D01*
X0110087Y0016001D01*
X0110027Y0016128D01*
X0109971Y0016257D01*
X0109919Y0016388D01*
X0109870Y0016520D01*
X0109825Y0016654D01*
X0109784Y0016789D01*
X0109747Y0016925D01*
X0109713Y0017061D01*
X0109684Y0017199D01*
X0109658Y0017338D01*
X0109637Y0017477D01*
X0109619Y0017617D01*
X0109605Y0017757D01*
X0109595Y0017897D01*
X0109589Y0018038D01*
X0109587Y0018179D01*
X0104390Y0028209D02*
X0104390Y0036683D01*
X0104390Y0072903D01*
X0154822Y0072903D01*
X0154822Y0036683D01*
X0154822Y0028209D01*
X0154822Y0036683D02*
X0104390Y0036683D01*
D12*
X0127902Y0049146D02*
X0127902Y0050681D01*
X0129436Y0050681D01*
X0127902Y0049146D02*
X0128669Y0048379D01*
X0130204Y0048379D01*
X0130971Y0049146D01*
X0130971Y0052216D01*
X0130204Y0052983D01*
X0128669Y0052983D01*
X0127902Y0052216D01*
X0132506Y0050681D02*
X0135575Y0050681D01*
X0137109Y0049914D02*
X0137109Y0049146D01*
X0137877Y0048379D01*
X0139411Y0048379D01*
X0140179Y0049146D01*
X0141713Y0049146D02*
X0142481Y0048379D01*
X0144015Y0048379D01*
X0144783Y0049146D01*
X0144783Y0052216D01*
X0144015Y0052983D01*
X0142481Y0052983D01*
X0141713Y0052216D01*
X0140179Y0052216D02*
X0139411Y0052983D01*
X0137877Y0052983D01*
X0137109Y0052216D01*
X0137109Y0051448D01*
X0137877Y0050681D01*
X0137109Y0049914D01*
X0137877Y0050681D02*
X0138644Y0050681D01*
X0146317Y0052983D02*
X0146317Y0048379D01*
X0149387Y0048379D02*
X0149387Y0052983D01*
X0147852Y0051448D01*
X0146317Y0052983D01*
X0146317Y0078379D02*
X0149387Y0082983D01*
X0146317Y0082983D02*
X0149387Y0078379D01*
X0144783Y0078379D02*
X0141713Y0078379D01*
X0143248Y0078379D02*
X0143248Y0082983D01*
X0144783Y0081448D01*
M02*
