G75*
%MOIN*%
%OFA0B0*%
%FSLAX25Y25*%
%IPPOS*%
%LPD*%
%AMOC8*
5,1,8,0,0,1.08239X$1,22.5*
%
%ADD10C,0.00000*%
%ADD11C,0.01575*%
D10*
X0157702Y0052323D02*
X0157704Y0052492D01*
X0157710Y0052661D01*
X0157721Y0052830D01*
X0157735Y0052998D01*
X0157754Y0053166D01*
X0157777Y0053334D01*
X0157803Y0053501D01*
X0157834Y0053667D01*
X0157869Y0053833D01*
X0157908Y0053997D01*
X0157952Y0054161D01*
X0157999Y0054323D01*
X0158050Y0054484D01*
X0158105Y0054644D01*
X0158164Y0054803D01*
X0158226Y0054960D01*
X0158293Y0055115D01*
X0158364Y0055269D01*
X0158438Y0055421D01*
X0158516Y0055571D01*
X0158597Y0055719D01*
X0158682Y0055865D01*
X0158771Y0056009D01*
X0158863Y0056151D01*
X0158959Y0056290D01*
X0159058Y0056427D01*
X0159160Y0056562D01*
X0159266Y0056694D01*
X0159375Y0056823D01*
X0159487Y0056950D01*
X0159602Y0057074D01*
X0159720Y0057195D01*
X0159841Y0057313D01*
X0159965Y0057428D01*
X0160092Y0057540D01*
X0160221Y0057649D01*
X0160353Y0057755D01*
X0160488Y0057857D01*
X0160625Y0057956D01*
X0160764Y0058052D01*
X0160906Y0058144D01*
X0161050Y0058233D01*
X0161196Y0058318D01*
X0161344Y0058399D01*
X0161494Y0058477D01*
X0161646Y0058551D01*
X0161800Y0058622D01*
X0161955Y0058689D01*
X0162112Y0058751D01*
X0162271Y0058810D01*
X0162431Y0058865D01*
X0162592Y0058916D01*
X0162754Y0058963D01*
X0162918Y0059007D01*
X0163082Y0059046D01*
X0163248Y0059081D01*
X0163414Y0059112D01*
X0163581Y0059138D01*
X0163749Y0059161D01*
X0163917Y0059180D01*
X0164085Y0059194D01*
X0164254Y0059205D01*
X0164423Y0059211D01*
X0164592Y0059213D01*
X0164761Y0059211D01*
X0164930Y0059205D01*
X0165099Y0059194D01*
X0165267Y0059180D01*
X0165435Y0059161D01*
X0165603Y0059138D01*
X0165770Y0059112D01*
X0165936Y0059081D01*
X0166102Y0059046D01*
X0166266Y0059007D01*
X0166430Y0058963D01*
X0166592Y0058916D01*
X0166753Y0058865D01*
X0166913Y0058810D01*
X0167072Y0058751D01*
X0167229Y0058689D01*
X0167384Y0058622D01*
X0167538Y0058551D01*
X0167690Y0058477D01*
X0167840Y0058399D01*
X0167988Y0058318D01*
X0168134Y0058233D01*
X0168278Y0058144D01*
X0168420Y0058052D01*
X0168559Y0057956D01*
X0168696Y0057857D01*
X0168831Y0057755D01*
X0168963Y0057649D01*
X0169092Y0057540D01*
X0169219Y0057428D01*
X0169343Y0057313D01*
X0169464Y0057195D01*
X0169582Y0057074D01*
X0169697Y0056950D01*
X0169809Y0056823D01*
X0169918Y0056694D01*
X0170024Y0056562D01*
X0170126Y0056427D01*
X0170225Y0056290D01*
X0170321Y0056151D01*
X0170413Y0056009D01*
X0170502Y0055865D01*
X0170587Y0055719D01*
X0170668Y0055571D01*
X0170746Y0055421D01*
X0170820Y0055269D01*
X0170891Y0055115D01*
X0170958Y0054960D01*
X0171020Y0054803D01*
X0171079Y0054644D01*
X0171134Y0054484D01*
X0171185Y0054323D01*
X0171232Y0054161D01*
X0171276Y0053997D01*
X0171315Y0053833D01*
X0171350Y0053667D01*
X0171381Y0053501D01*
X0171407Y0053334D01*
X0171430Y0053166D01*
X0171449Y0052998D01*
X0171463Y0052830D01*
X0171474Y0052661D01*
X0171480Y0052492D01*
X0171482Y0052323D01*
X0171480Y0052154D01*
X0171474Y0051985D01*
X0171463Y0051816D01*
X0171449Y0051648D01*
X0171430Y0051480D01*
X0171407Y0051312D01*
X0171381Y0051145D01*
X0171350Y0050979D01*
X0171315Y0050813D01*
X0171276Y0050649D01*
X0171232Y0050485D01*
X0171185Y0050323D01*
X0171134Y0050162D01*
X0171079Y0050002D01*
X0171020Y0049843D01*
X0170958Y0049686D01*
X0170891Y0049531D01*
X0170820Y0049377D01*
X0170746Y0049225D01*
X0170668Y0049075D01*
X0170587Y0048927D01*
X0170502Y0048781D01*
X0170413Y0048637D01*
X0170321Y0048495D01*
X0170225Y0048356D01*
X0170126Y0048219D01*
X0170024Y0048084D01*
X0169918Y0047952D01*
X0169809Y0047823D01*
X0169697Y0047696D01*
X0169582Y0047572D01*
X0169464Y0047451D01*
X0169343Y0047333D01*
X0169219Y0047218D01*
X0169092Y0047106D01*
X0168963Y0046997D01*
X0168831Y0046891D01*
X0168696Y0046789D01*
X0168559Y0046690D01*
X0168420Y0046594D01*
X0168278Y0046502D01*
X0168134Y0046413D01*
X0167988Y0046328D01*
X0167840Y0046247D01*
X0167690Y0046169D01*
X0167538Y0046095D01*
X0167384Y0046024D01*
X0167229Y0045957D01*
X0167072Y0045895D01*
X0166913Y0045836D01*
X0166753Y0045781D01*
X0166592Y0045730D01*
X0166430Y0045683D01*
X0166266Y0045639D01*
X0166102Y0045600D01*
X0165936Y0045565D01*
X0165770Y0045534D01*
X0165603Y0045508D01*
X0165435Y0045485D01*
X0165267Y0045466D01*
X0165099Y0045452D01*
X0164930Y0045441D01*
X0164761Y0045435D01*
X0164592Y0045433D01*
X0164423Y0045435D01*
X0164254Y0045441D01*
X0164085Y0045452D01*
X0163917Y0045466D01*
X0163749Y0045485D01*
X0163581Y0045508D01*
X0163414Y0045534D01*
X0163248Y0045565D01*
X0163082Y0045600D01*
X0162918Y0045639D01*
X0162754Y0045683D01*
X0162592Y0045730D01*
X0162431Y0045781D01*
X0162271Y0045836D01*
X0162112Y0045895D01*
X0161955Y0045957D01*
X0161800Y0046024D01*
X0161646Y0046095D01*
X0161494Y0046169D01*
X0161344Y0046247D01*
X0161196Y0046328D01*
X0161050Y0046413D01*
X0160906Y0046502D01*
X0160764Y0046594D01*
X0160625Y0046690D01*
X0160488Y0046789D01*
X0160353Y0046891D01*
X0160221Y0046997D01*
X0160092Y0047106D01*
X0159965Y0047218D01*
X0159841Y0047333D01*
X0159720Y0047451D01*
X0159602Y0047572D01*
X0159487Y0047696D01*
X0159375Y0047823D01*
X0159266Y0047952D01*
X0159160Y0048084D01*
X0159058Y0048219D01*
X0158959Y0048356D01*
X0158863Y0048495D01*
X0158771Y0048637D01*
X0158682Y0048781D01*
X0158597Y0048927D01*
X0158516Y0049075D01*
X0158438Y0049225D01*
X0158364Y0049377D01*
X0158293Y0049531D01*
X0158226Y0049686D01*
X0158164Y0049843D01*
X0158105Y0050002D01*
X0158050Y0050162D01*
X0157999Y0050323D01*
X0157952Y0050485D01*
X0157908Y0050649D01*
X0157869Y0050813D01*
X0157834Y0050979D01*
X0157803Y0051145D01*
X0157777Y0051312D01*
X0157754Y0051480D01*
X0157735Y0051648D01*
X0157721Y0051816D01*
X0157710Y0051985D01*
X0157704Y0052154D01*
X0157702Y0052323D01*
X0167702Y0174823D02*
X0167704Y0174992D01*
X0167710Y0175161D01*
X0167721Y0175330D01*
X0167735Y0175498D01*
X0167754Y0175666D01*
X0167777Y0175834D01*
X0167803Y0176001D01*
X0167834Y0176167D01*
X0167869Y0176333D01*
X0167908Y0176497D01*
X0167952Y0176661D01*
X0167999Y0176823D01*
X0168050Y0176984D01*
X0168105Y0177144D01*
X0168164Y0177303D01*
X0168226Y0177460D01*
X0168293Y0177615D01*
X0168364Y0177769D01*
X0168438Y0177921D01*
X0168516Y0178071D01*
X0168597Y0178219D01*
X0168682Y0178365D01*
X0168771Y0178509D01*
X0168863Y0178651D01*
X0168959Y0178790D01*
X0169058Y0178927D01*
X0169160Y0179062D01*
X0169266Y0179194D01*
X0169375Y0179323D01*
X0169487Y0179450D01*
X0169602Y0179574D01*
X0169720Y0179695D01*
X0169841Y0179813D01*
X0169965Y0179928D01*
X0170092Y0180040D01*
X0170221Y0180149D01*
X0170353Y0180255D01*
X0170488Y0180357D01*
X0170625Y0180456D01*
X0170764Y0180552D01*
X0170906Y0180644D01*
X0171050Y0180733D01*
X0171196Y0180818D01*
X0171344Y0180899D01*
X0171494Y0180977D01*
X0171646Y0181051D01*
X0171800Y0181122D01*
X0171955Y0181189D01*
X0172112Y0181251D01*
X0172271Y0181310D01*
X0172431Y0181365D01*
X0172592Y0181416D01*
X0172754Y0181463D01*
X0172918Y0181507D01*
X0173082Y0181546D01*
X0173248Y0181581D01*
X0173414Y0181612D01*
X0173581Y0181638D01*
X0173749Y0181661D01*
X0173917Y0181680D01*
X0174085Y0181694D01*
X0174254Y0181705D01*
X0174423Y0181711D01*
X0174592Y0181713D01*
X0174761Y0181711D01*
X0174930Y0181705D01*
X0175099Y0181694D01*
X0175267Y0181680D01*
X0175435Y0181661D01*
X0175603Y0181638D01*
X0175770Y0181612D01*
X0175936Y0181581D01*
X0176102Y0181546D01*
X0176266Y0181507D01*
X0176430Y0181463D01*
X0176592Y0181416D01*
X0176753Y0181365D01*
X0176913Y0181310D01*
X0177072Y0181251D01*
X0177229Y0181189D01*
X0177384Y0181122D01*
X0177538Y0181051D01*
X0177690Y0180977D01*
X0177840Y0180899D01*
X0177988Y0180818D01*
X0178134Y0180733D01*
X0178278Y0180644D01*
X0178420Y0180552D01*
X0178559Y0180456D01*
X0178696Y0180357D01*
X0178831Y0180255D01*
X0178963Y0180149D01*
X0179092Y0180040D01*
X0179219Y0179928D01*
X0179343Y0179813D01*
X0179464Y0179695D01*
X0179582Y0179574D01*
X0179697Y0179450D01*
X0179809Y0179323D01*
X0179918Y0179194D01*
X0180024Y0179062D01*
X0180126Y0178927D01*
X0180225Y0178790D01*
X0180321Y0178651D01*
X0180413Y0178509D01*
X0180502Y0178365D01*
X0180587Y0178219D01*
X0180668Y0178071D01*
X0180746Y0177921D01*
X0180820Y0177769D01*
X0180891Y0177615D01*
X0180958Y0177460D01*
X0181020Y0177303D01*
X0181079Y0177144D01*
X0181134Y0176984D01*
X0181185Y0176823D01*
X0181232Y0176661D01*
X0181276Y0176497D01*
X0181315Y0176333D01*
X0181350Y0176167D01*
X0181381Y0176001D01*
X0181407Y0175834D01*
X0181430Y0175666D01*
X0181449Y0175498D01*
X0181463Y0175330D01*
X0181474Y0175161D01*
X0181480Y0174992D01*
X0181482Y0174823D01*
X0181480Y0174654D01*
X0181474Y0174485D01*
X0181463Y0174316D01*
X0181449Y0174148D01*
X0181430Y0173980D01*
X0181407Y0173812D01*
X0181381Y0173645D01*
X0181350Y0173479D01*
X0181315Y0173313D01*
X0181276Y0173149D01*
X0181232Y0172985D01*
X0181185Y0172823D01*
X0181134Y0172662D01*
X0181079Y0172502D01*
X0181020Y0172343D01*
X0180958Y0172186D01*
X0180891Y0172031D01*
X0180820Y0171877D01*
X0180746Y0171725D01*
X0180668Y0171575D01*
X0180587Y0171427D01*
X0180502Y0171281D01*
X0180413Y0171137D01*
X0180321Y0170995D01*
X0180225Y0170856D01*
X0180126Y0170719D01*
X0180024Y0170584D01*
X0179918Y0170452D01*
X0179809Y0170323D01*
X0179697Y0170196D01*
X0179582Y0170072D01*
X0179464Y0169951D01*
X0179343Y0169833D01*
X0179219Y0169718D01*
X0179092Y0169606D01*
X0178963Y0169497D01*
X0178831Y0169391D01*
X0178696Y0169289D01*
X0178559Y0169190D01*
X0178420Y0169094D01*
X0178278Y0169002D01*
X0178134Y0168913D01*
X0177988Y0168828D01*
X0177840Y0168747D01*
X0177690Y0168669D01*
X0177538Y0168595D01*
X0177384Y0168524D01*
X0177229Y0168457D01*
X0177072Y0168395D01*
X0176913Y0168336D01*
X0176753Y0168281D01*
X0176592Y0168230D01*
X0176430Y0168183D01*
X0176266Y0168139D01*
X0176102Y0168100D01*
X0175936Y0168065D01*
X0175770Y0168034D01*
X0175603Y0168008D01*
X0175435Y0167985D01*
X0175267Y0167966D01*
X0175099Y0167952D01*
X0174930Y0167941D01*
X0174761Y0167935D01*
X0174592Y0167933D01*
X0174423Y0167935D01*
X0174254Y0167941D01*
X0174085Y0167952D01*
X0173917Y0167966D01*
X0173749Y0167985D01*
X0173581Y0168008D01*
X0173414Y0168034D01*
X0173248Y0168065D01*
X0173082Y0168100D01*
X0172918Y0168139D01*
X0172754Y0168183D01*
X0172592Y0168230D01*
X0172431Y0168281D01*
X0172271Y0168336D01*
X0172112Y0168395D01*
X0171955Y0168457D01*
X0171800Y0168524D01*
X0171646Y0168595D01*
X0171494Y0168669D01*
X0171344Y0168747D01*
X0171196Y0168828D01*
X0171050Y0168913D01*
X0170906Y0169002D01*
X0170764Y0169094D01*
X0170625Y0169190D01*
X0170488Y0169289D01*
X0170353Y0169391D01*
X0170221Y0169497D01*
X0170092Y0169606D01*
X0169965Y0169718D01*
X0169841Y0169833D01*
X0169720Y0169951D01*
X0169602Y0170072D01*
X0169487Y0170196D01*
X0169375Y0170323D01*
X0169266Y0170452D01*
X0169160Y0170584D01*
X0169058Y0170719D01*
X0168959Y0170856D01*
X0168863Y0170995D01*
X0168771Y0171137D01*
X0168682Y0171281D01*
X0168597Y0171427D01*
X0168516Y0171575D01*
X0168438Y0171725D01*
X0168364Y0171877D01*
X0168293Y0172031D01*
X0168226Y0172186D01*
X0168164Y0172343D01*
X0168105Y0172502D01*
X0168050Y0172662D01*
X0167999Y0172823D01*
X0167952Y0172985D01*
X0167908Y0173149D01*
X0167869Y0173313D01*
X0167834Y0173479D01*
X0167803Y0173645D01*
X0167777Y0173812D01*
X0167754Y0173980D01*
X0167735Y0174148D01*
X0167721Y0174316D01*
X0167710Y0174485D01*
X0167704Y0174654D01*
X0167702Y0174823D01*
D11*
X0102087Y0188179D02*
X0102087Y0038179D01*
X0192087Y0038179D01*
X0192087Y0188179D01*
X0102087Y0188179D01*
M02*
