%
M48
M72
T01C0.0197
T02C0.0394
T03C0.0500
T04C0.1378
%
T01
X11459Y9318
X12209Y9318
X12209Y10068
X11459Y10068
X11459Y10818
X12209Y10818
X12959Y10818
X12959Y10068
X12959Y9318
X15459Y8068
X17209Y10068
X15959Y11568
X17209Y13568
X14709Y15068
X12959Y14318
X12959Y13568
X12959Y12818
X12209Y12818
X11459Y12818
X11459Y13568
X12209Y13568
X12209Y14318
X11459Y14318
T02
X11959Y17568
X13209Y17568
X14459Y17568
X15459Y17568
T03
X11459Y6818
X12959Y6818
X14459Y6818
T04
X16459Y5232
X17459Y17482
M30
