G75*
%MOIN*%
%OFA0B0*%
%FSLAX25Y25*%
%IPPOS*%
%LPD*%
%AMOC8*
5,1,8,0,0,1.08239X$1,22.5*
%
%ADD10C,0.14580*%
%ADD11R,0.07099X0.03950*%
%ADD12R,0.24422X0.24422*%
%ADD13C,0.07099*%
%ADD14C,0.08300*%
%ADD15R,0.05918X0.07099*%
%ADD16R,0.07099X0.05918*%
%ADD17R,0.06706X0.06706*%
%ADD18R,0.05918X0.06706*%
%ADD19C,0.05131*%
D10*
X0164592Y0052323D03*
X0174592Y0174823D03*
D11*
X0147136Y0144031D03*
X0147136Y0139542D03*
X0147136Y0130566D03*
X0147136Y0126078D03*
X0147136Y0109031D03*
X0147136Y0104542D03*
X0147136Y0095566D03*
X0147136Y0091078D03*
D12*
X0120718Y0100054D03*
X0120718Y0135054D03*
D13*
X0119587Y0175679D03*
X0132087Y0175679D03*
X0144587Y0175679D03*
X0154587Y0175679D03*
D14*
X0114587Y0071929D02*
X0114587Y0064429D01*
X0129587Y0064429D02*
X0129587Y0071929D01*
X0144587Y0071929D02*
X0144587Y0064429D01*
D15*
X0160846Y0093179D03*
X0168327Y0093179D03*
X0168327Y0128179D03*
X0160846Y0128179D03*
D16*
X0112087Y0156742D03*
X0112087Y0164616D03*
D17*
X0179587Y0142569D03*
X0179587Y0128789D03*
X0179587Y0110069D03*
X0179587Y0096289D03*
D18*
X0168327Y0108179D03*
X0160846Y0108179D03*
X0160846Y0143179D03*
X0168327Y0143179D03*
D19*
X0172087Y0135679D03*
X0159587Y0115679D03*
X0172087Y0100679D03*
X0154587Y0080679D03*
X0129587Y0093179D03*
X0129587Y0100679D03*
X0129587Y0108179D03*
X0122087Y0108179D03*
X0114587Y0108179D03*
X0114587Y0100679D03*
X0122087Y0100679D03*
X0122087Y0093179D03*
X0114587Y0093179D03*
X0114587Y0128179D03*
X0122087Y0128179D03*
X0129587Y0128179D03*
X0129587Y0135679D03*
X0129587Y0143179D03*
X0122087Y0143179D03*
X0114587Y0143179D03*
X0114587Y0135679D03*
X0122087Y0135679D03*
X0147087Y0150679D03*
M02*
